{
  "accessors": [
    {
      "bufferView": 2,
      "componentType": 5126,
      "count": 65532,
      "max": [
        123.90264892578125,
        152.3504180908203,
        146.88661193847656
      ],
      "min": [
        -17.140884399414063,
        -122.68711853027344,
        -166.0748748779297
      ],
      "type": "VEC3"
    },
    {
      "bufferView": 2,
      "byteOffset": 786384,
      "componentType": 5126,
      "count": 65532,
      "max": [
        1.0,
        1.0,
        1.0
      ],
      "min": [
        -1.0,
        -1.0,
        -1.0
      ],
      "type": "VEC3"
    },
    {
      "bufferView": 0,
      "componentType": 5125,
      "count": 304641,
      "type": "SCALAR"
    },
    {
      "bufferView": 2,
      "byteOffset": 1572768,
      "componentType": 5126,
      "count": 65532,
      "max": [
        127.37227630615234,
        155.88780212402344,
        94.50411224365234
      ],
      "min": [
        -102.04462432861328,
        -112.94628143310547,
        -169.59544372558594
      ],
      "type": "VEC3"
    },
    {
      "bufferView": 2,
      "byteOffset": 2359152,
      "componentType": 5126,
      "count": 65532,
      "max": [
        0.9999500513076782,
        0.9999469518661499,
        0.9998623132705688
      ],
      "min": [
        -0.9999853372573853,
        -0.9999980926513672,
        -1.0
      ],
      "type": "VEC3"
    },
    {
      "bufferView": 0,
      "byteOffset": 1218564,
      "componentType": 5125,
      "count": 350754,
      "type": "SCALAR"
    },
    {
      "bufferView": 2,
      "byteOffset": 3145536,
      "componentType": 5126,
      "count": 65532,
      "max": [
        1.147674560546875,
        155.55946350097656,
        116.95085144042969
      ],
      "min": [
        -127.37227630615234,
        -112.94628143310547,
        -169.59544372558594
      ],
      "type": "VEC3"
    },
    {
      "bufferView": 2,
      "byteOffset": 3931920,
      "componentType": 5126,
      "count": 65532,
      "max": [
        0.9999853372573853,
        0.9999105930328369,
        0.9999713897705078
      ],
      "min": [
        -0.999984622001648,
        -0.9999980926513672,
        -1.0
      ],
      "type": "VEC3"
    },
    {
      "bufferView": 0,
      "byteOffset": 2621580,
      "componentType": 5125,
      "count": 356082,
      "type": "SCALAR"
    },
    {
      "bufferView": 2,
      "byteOffset": 4718304,
      "componentType": 5126,
      "count": 65533,
      "max": [
        17.140884399414063,
        155.88780212402344,
        146.88661193847656
      ],
      "min": [
        -124.3905029296875,
        -122.68711853027344,
        -169.59544372558594
      ],
      "type": "VEC3"
    },
    {
      "bufferView": 2,
      "byteOffset": 5504700,
      "componentType": 5126,
      "count": 65533,
      "max": [
        1.0,
        1.0,
        1.0
      ],
      "min": [
        -1.0,
        -1.0,
        -1.0
      ],
      "type": "VEC3"
    },
    {
      "bufferView": 0,
      "byteOffset": 4045908,
      "componentType": 5125,
      "count": 300693,
      "type": "SCALAR"
    },
    {
      "bufferView": 2,
      "byteOffset": 6291096,
      "componentType": 5126,
      "count": 5732,
      "max": [
        123.53453826904297,
        155.7748260498047,
        94.7011947631836
      ],
      "min": [
        -83.7050552368164,
        -110.61914825439453,
        -169.59544372558594
      ],
      "type": "VEC3"
    },
    {
      "bufferView": 2,
      "byteOffset": 6359880,
      "componentType": 5126,
      "count": 5732,
      "max": [
        0.9999451637268066,
        1.0,
        0.9848036766052246
      ],
      "min": [
        -0.978142499923706,
        -0.9977885484695435,
        -1.0
      ],
      "type": "VEC3"
    },
    {
      "bufferView": 0,
      "byteOffset": 5248680,
      "componentType": 5125,
      "count": 19428,
      "type": "SCALAR"
    },
    {
      "bufferView": 2,
      "byteOffset": 6428664,
      "componentType": 5126,
      "count": 676,
      "max": [
        1.9603188037872314,
        1.3949946165084839,
        0.600054144859314
      ],
      "min": [
        -2.2312679290771484,
        -1.3949956893920898,
        -55.18566131591797
      ],
      "type": "VEC3"
    },
    {
      "bufferView": 2,
      "byteOffset": 6436776,
      "componentType": 5126,
      "count": 676,
      "max": [
        0.9935831427574158,
        1.0,
        0.9915124177932739
      ],
      "min": [
        -0.9935831427574158,
        -1.0,
        -0.9915006160736084
      ],
      "type": "VEC3"
    },
    {
      "bufferView": 1,
      "componentType": 5126,
      "count": 676,
      "max": [
        1.0000001192092896,
        1.0
      ],
      "min": [
        0.0,
        0.0
      ],
      "type": "VEC2"
    },
    {
      "bufferView": 0,
      "byteOffset": 5326392,
      "componentType": 5125,
      "count": 1872,
      "type": "SCALAR"
    }
  ],
  "asset": {
    "extras": {
      "author": "SDC PERFORMANCE™️ (https://sketchfab.com/3Duae)",
      "license": "CC-BY-4.0 (http://creativecommons.org/licenses/by/4.0/)",
      "source": "https://sketchfab.com/3d-models/helmet-star-wars-death-trooper-sdc-5ac5212d642d45739702f22889dcb365",
      "title": "Helmet Star-Wars - Death Trooper - SDC"
    },
    "generator": "Sketchfab-12.56.0",
    "version": "2.0"
  },
  "bufferViews": [
    {
      "buffer": 0,
      "byteLength": 5333880,
      "name": "floatBufferViews",
      "target": 34963
    },
    {
      "buffer": 0,
      "byteLength": 5408,
      "byteOffset": 5333880,
      "byteStride": 8,
      "name": "floatBufferViews",
      "target": 34962
    },
    {
      "buffer": 0,
      "byteLength": 6444888,
      "byteOffset": 5339288,
      "byteStride": 12,
      "name": "floatBufferViews",
      "target": 34962
    }
  ],
  "buffers": [
    {
      "byteLength": 11784176,
      "uri": "scene.bin"
    }
  ],
  "materials": [
    {
      "doubleSided": true,
      "name": "material_0",
      "pbrMetallicRoughness": {
        "baseColorFactor": [
          0.004353661902260082,
          0.12256760431052595,
          0.0,
          1.0
        ],
        "metallicFactor": 0.0,
        "roughnessFactor": 0.0
      }
    },
    {
      "doubleSided": true,
      "name": "Material.001",
      "pbrMetallicRoughness": {
        "baseColorFactor": [
          0.022903998576993965,
          0.022903998576993965,
          0.022903998576993965,
          1.0
        ],
        "metallicFactor": 0.8043320300861602,
        "roughnessFactor": 0.0
      }
    }
  ],
  "meshes": [
    {
      "name": "Object_0",
      "primitives": [
        {
          "attributes": {
            "NORMAL": 1,
            "POSITION": 0
          },
          "indices": 2,
          "material": 1,
          "mode": 4
        }
      ]
    },
    {
      "name": "Object_1",
      "primitives": [
        {
          "attributes": {
            "NORMAL": 4,
            "POSITION": 3
          },
          "indices": 5,
          "material": 1,
          "mode": 4
        }
      ]
    },
    {
      "name": "Object_2",
      "primitives": [
        {
          "attributes": {
            "NORMAL": 7,
            "POSITION": 6
          },
          "indices": 8,
          "material": 1,
          "mode": 4
        }
      ]
    },
    {
      "name": "Object_3",
      "primitives": [
        {
          "attributes": {
            "NORMAL": 10,
            "POSITION": 9
          },
          "indices": 11,
          "material": 1,
          "mode": 4
        }
      ]
    },
    {
      "name": "Object_4",
      "primitives": [
        {
          "attributes": {
            "NORMAL": 13,
            "POSITION": 12
          },
          "indices": 14,
          "material": 1,
          "mode": 4
        }
      ]
    },
    {
      "name": "Object_5",
      "primitives": [
        {
          "attributes": {
            "NORMAL": 16,
            "POSITION": 15,
            "TEXCOORD_0": 17
          },
          "indices": 18,
          "material": 0,
          "mode": 4
        }
      ]
    }
  ],
  "nodes": [
    {
      "children": [
        1
      ],
      "matrix": [
        1.0,
        0.0,
        0.0,
        0.0,
        0.0,
        -0.05480871722102143,
        -0.9984968900680542,
        0.0,
        0.0,
        0.9984968900680542,
        -0.05480871722102143,
        0.0,
        0.0,
        0.07218473404645917,
        0.0995677635073662,
        1.0
      ],
      "name": "Sketchfab_model"
    },
    {
      "children": [
        2
      ],
      "name": "root"
    },
    {
      "children": [
        3,
        9
      ],
      "matrix": [
        1.0,
        0.0,
        0.0,
        0.0,
        0.0,
        2.220446049250313e-16,
        1.0,
        0.0,
        0.0,
        -1.0,
        2.220446049250313e-16,
        0.0,
        0.0,
        0.0,
        0.0,
        1.0
      ],
      "name": "GLTF_SceneRootNode"
    },
    {
      "children": [
        4,
        5,
        6,
        7,
        8
      ],
      "matrix": [
        0.11152581125497818,
        0.0,
        0.0,
        0.0,
        0.0,
        0.11152581125497818,
        0.0,
        0.0,
        0.0,
        0.0,
        0.11152581125497818,
        0.0,
        0.0,
        0.0,
        0.0,
        1.0
      ],
      "name": "DeathTrooper_0"
    },
    {
      "mesh": 0,
      "name": "Object_4"
    },
    {
      "mesh": 1,
      "name": "Object_5"
    },
    {
      "mesh": 2,
      "name": "Object_6"
    },
    {
      "mesh": 3,
      "name": "Object_7"
    },
    {
      "mesh": 4,
      "name": "Object_8"
    },
    {
      "children": [
        10
      ],
      "matrix": [
        0.0,
        0.0,
        -0.41381746530532837,
        0.0,
        0.0,
        0.41381746530532837,
        0.0,
        0.0,
        0.41381746530532837,
        0.0,
        0.0,
        0.0,
        11.33891773223877,
        0.4819530248641968,
        -3.876600742340088,
        1.0
      ],
      "name": "SDC_logo_1"
    },
    {
      "mesh": 5,
      "name": "Object_10"
    }
  ],
  "scene": 0,
  "scenes": [
    {
      "name": "Sketchfab_Scene",
      "nodes": [
        0
      ]
    }
  ]
}
