{
  "accessors": [
    {
      "bufferView": 2,
      "componentType": 5126,
      "count": 65533,
      "max": [
        0.8355039954185486,
        -0.46989399194717407,
        0.7315769791603088
      ],
      "min": [
        -0.8355039954185486,
        -0.8336809873580933,
        -0.9776480197906494
      ],
      "type": "VEC3"
    },
    {
      "bufferView": 2,
      "byteOffset": 786396,
      "componentType": 5126,
      "count": 65533,
      "max": [
        0.9969278573989868,
        0.5338227152824402,
        0.9970195889472961
      ],
      "min": [
        -0.9968866109848022,
        -0.9999288320541382,
        -0.9957571625709534
      ],
      "type": "VEC3"
    },
    {
      "bufferView": 1,
      "componentType": 5126,
      "count": 65533,
      "max": [
        0.968392014503479,
        0.8887479901313782
      ],
      "min": [
        0.32572001218795776,
        0.04971100017428398
      ],
      "type": "VEC2"
    },
    {
      "bufferView": 0,
      "componentType": 5125,
      "count": 98433,
      "type": "SCALAR"
    },
    {
      "bufferView": 2,
      "byteOffset": 1572792,
      "componentType": 5126,
      "count": 65533,
      "max": [
        0.7369790077209473,
        -0.558193027973175,
        0.6903359889984131
      ],
      "min": [
        -0.738726019859314,
        -0.834426999092102,
        -0.9415150284767151
      ],
      "type": "VEC3"
    },
    {
      "bufferView": 2,
      "byteOffset": 2359188,
      "componentType": 5126,
      "count": 65533,
      "max": [
        0.9990335702896118,
        0.4357236325740814,
        0.9993358850479126
      ],
      "min": [
        -0.9992406964302063,
        -1.0,
        -0.9718912839889526
      ],
      "type": "VEC3"
    },
    {
      "bufferView": 1,
      "byteOffset": 524264,
      "componentType": 5126,
      "count": 65533,
      "max": [
        0.686493992805481,
        0.39806699752807617
      ],
      "min": [
        0.3515940010547638,
        0.05997699871659279
      ],
      "type": "VEC2"
    },
    {
      "bufferView": 0,
      "byteOffset": 393732,
      "componentType": 5125,
      "count": 98424,
      "type": "SCALAR"
    },
    {
      "bufferView": 2,
      "byteOffset": 3145584,
      "componentType": 5126,
      "count": 65534,
      "max": [
        0.8364769816398621,
        -0.3646160066127777,
        0.7327700257301331
      ],
      "min": [
        -0.831358015537262,
        -0.7787600159645081,
        -0.8924700021743774
      ],
      "type": "VEC3"
    },
    {
      "bufferView": 2,
      "byteOffset": 3931992,
      "componentType": 5126,
      "count": 65534,
      "max": [
        0.9999978542327881,
        0.8782766461372375,
        0.9980883002281189
      ],
      "min": [
        -0.9999985694885254,
        -0.999961256980896,
        -0.9928872585296631
      ],
      "type": "VEC3"
    },
    {
      "bufferView": 1,
      "byteOffset": 1048528,
      "componentType": 5126,
      "count": 65534,
      "max": [
        0.7358790040016174,
        0.43573999404907227
      ],
      "min": [
        0.3007830083370209,
        0.0675399973988533
      ],
      "type": "VEC2"
    },
    {
      "bufferView": 0,
      "byteOffset": 787428,
      "componentType": 5125,
      "count": 98388,
      "type": "SCALAR"
    },
    {
      "bufferView": 2,
      "byteOffset": 4718400,
      "componentType": 5126,
      "count": 65534,
      "max": [
        1.3475370407104492,
        0.8172199726104736,
        0.9613720178604126
      ],
      "min": [
        -1.3454370498657227,
        -0.5738909840583801,
        -0.9788110256195068
      ],
      "type": "VEC3"
    },
    {
      "bufferView": 2,
      "byteOffset": 5504808,
      "componentType": 5126,
      "count": 65534,
      "max": [
        0.9998738765716553,
        0.9999164342880249,
        0.9996758103370667
      ],
      "min": [
        -0.9998717308044434,
        -0.9979563355445862,
        -0.9998473525047302
      ],
      "type": "VEC3"
    },
    {
      "bufferView": 1,
      "byteOffset": 1572800,
      "componentType": 5126,
      "count": 65534,
      "max": [
        0.9998559951782227,
        0.8269010186195374
      ],
      "min": [
        0.00014400000509340316,
        0.00014400000509340316
      ],
      "type": "VEC2"
    },
    {
      "bufferView": 0,
      "byteOffset": 1180980,
      "componentType": 5125,
      "count": 98298,
      "type": "SCALAR"
    },
    {
      "bufferView": 2,
      "byteOffset": 6291216,
      "componentType": 5126,
      "count": 65534,
      "max": [
        1.295246958732605,
        0.8172199726104736,
        0.9613720178604126
      ],
      "min": [
        -1.3313310146331787,
        -0.834426999092102,
        -0.9765629768371582
      ],
      "type": "VEC3"
    },
    {
      "bufferView": 2,
      "byteOffset": 7077624,
      "componentType": 5126,
      "count": 65534,
      "max": [
        0.9996129870414734,
        0.9989727139472961,
        0.9996758103370667
      ],
      "min": [
        -0.9998738765716553,
        -0.9999703168869019,
        -0.9955797791481018
      ],
      "type": "VEC3"
    },
    {
      "bufferView": 1,
      "byteOffset": 2097072,
      "componentType": 5126,
      "count": 65534,
      "max": [
        0.954712986946106,
        0.9011589884757996
      ],
      "min": [
        0.00014400000509340316,
        0.00014400000509340316
      ],
      "type": "VEC2"
    },
    {
      "bufferView": 0,
      "byteOffset": 1574172,
      "componentType": 5125,
      "count": 98298,
      "type": "SCALAR"
    },
    {
      "bufferView": 2,
      "byteOffset": 7864032,
      "componentType": 5126,
      "count": 65532,
      "max": [
        1.348755955696106,
        0.5349910259246826,
        0.5026040077209473
      ],
      "min": [
        -1.348755955696106,
        -0.825439989566803,
        -0.9720050096511841
      ],
      "type": "VEC3"
    },
    {
      "bufferView": 2,
      "byteOffset": 8650416,
      "componentType": 5126,
      "count": 65532,
      "max": [
        0.9999985694885254,
        0.9999164342880249,
        0.9993869066238403
      ],
      "min": [
        -0.9999905824661255,
        -0.9999998807907104,
        -0.9997389912605286
      ],
      "type": "VEC3"
    },
    {
      "bufferView": 1,
      "byteOffset": 2621344,
      "componentType": 5126,
      "count": 65532,
      "max": [
        0.968392014503479,
        0.87043297290802
      ],
      "min": [
        0.019409000873565674,
        0.05120500177145004
      ],
      "type": "VEC2"
    },
    {
      "bufferView": 0,
      "byteOffset": 1967364,
      "componentType": 5125,
      "count": 98370,
      "type": "SCALAR"
    },
    {
      "bufferView": 2,
      "byteOffset": 9436800,
      "componentType": 5126,
      "count": 65534,
      "max": [
        1.2689720392227173,
        0.4799349904060364,
        0.4291990101337433
      ],
      "min": [
        -1.2408219575881958,
        -0.09543199837207794,
        -0.12966899573802948
      ],
      "type": "VEC3"
    },
    {
      "bufferView": 2,
      "byteOffset": 10223208,
      "componentType": 5126,
      "count": 65534,
      "max": [
        0.999875545501709,
        0.8929852247238159,
        0.9979674220085144
      ],
      "min": [
        -0.999876856803894,
        -0.9995774626731873,
        -0.9996224045753479
      ],
      "type": "VEC3"
    },
    {
      "bufferView": 1,
      "byteOffset": 3145600,
      "componentType": 5126,
      "count": 65534,
      "max": [
        0.8292869925498962,
        0.8949429988861084
      ],
      "min": [
        0.1860249936580658,
        0.15100200474262238
      ],
      "type": "VEC2"
    },
    {
      "bufferView": 0,
      "byteOffset": 2360844,
      "componentType": 5125,
      "count": 98298,
      "type": "SCALAR"
    },
    {
      "bufferView": 2,
      "byteOffset": 11009616,
      "componentType": 5126,
      "count": 44803,
      "max": [
        1.3313310146331787,
        0.6927289962768555,
        0.8703340291976929
      ],
      "min": [
        -1.3305670022964478,
        -0.6305339932441711,
        -0.3748050034046173
      ],
      "type": "VEC3"
    },
    {
      "bufferView": 2,
      "byteOffset": 11547252,
      "componentType": 5126,
      "count": 44803,
      "max": [
        0.9999957084655762,
        0.9851822257041931,
        0.9996132254600525
      ],
      "min": [
        -0.9999957084655762,
        -0.9999858140945435,
        -0.9751930236816406
      ],
      "type": "VEC3"
    },
    {
      "bufferView": 1,
      "byteOffset": 3669872,
      "componentType": 5126,
      "count": 44803,
      "max": [
        0.9119009971618652,
        0.9048510193824768
      ],
      "min": [
        0.10639999806880951,
        0.07457700371742249
      ],
      "type": "VEC2"
    },
    {
      "bufferView": 0,
      "byteOffset": 2754036,
      "componentType": 5125,
      "count": 67203,
      "type": "SCALAR"
    }
  ],
  "asset": {
    "extras": {
      "author": "robfaulkner549 (https://sketchfab.com/robfaulkner549)",
      "license": "CC-BY-4.0 (http://creativecommons.org/licenses/by/4.0/)",
      "source": "https://sketchfab.com/3d-models/high-poly-blender-monkey-suzanne-396cc8d256514020b18dbf59d646294d",
      "title": "High Poly Blender Monkey (Suzanne)"
    },
    "generator": "Sketchfab-15.24.0",
    "version": "2.0"
  },
  "bufferViews": [
    {
      "buffer": 0,
      "byteLength": 3022848,
      "name": "floatBufferViews",
      "target": 34963
    },
    {
      "buffer": 0,
      "byteLength": 4028296,
      "byteOffset": 3022848,
      "byteStride": 8,
      "name": "floatBufferViews",
      "target": 34962
    },
    {
      "buffer": 0,
      "byteLength": 12084888,
      "byteOffset": 7051144,
      "byteStride": 12,
      "name": "floatBufferViews",
      "target": 34962
    }
  ],
  "buffers": [
    {
      "byteLength": 19136032,
      "uri": "scene.bin"
    }
  ],
  "materials": [
    {
      "doubleSided": true,
      "name": "None",
      "pbrMetallicRoughness": {
        "metallicFactor": 0.0,
        "roughnessFactor": 0.6
      }
    }
  ],
  "meshes": [
    {
      "name": "Object_0",
      "primitives": [
        {
          "attributes": {
            "NORMAL": 1,
            "POSITION": 0,
            "TEXCOORD_0": 2
          },
          "indices": 3,
          "material": 0,
          "mode": 4
        }
      ]
    },
    {
      "name": "Object_1",
      "primitives": [
        {
          "attributes": {
            "NORMAL": 5,
            "POSITION": 4,
            "TEXCOORD_0": 6
          },
          "indices": 7,
          "material": 0,
          "mode": 4
        }
      ]
    },
    {
      "name": "Object_2",
      "primitives": [
        {
          "attributes": {
            "NORMAL": 9,
            "POSITION": 8,
            "TEXCOORD_0": 10
          },
          "indices": 11,
          "material": 0,
          "mode": 4
        }
      ]
    },
    {
      "name": "Object_3",
      "primitives": [
        {
          "attributes": {
            "NORMAL": 13,
            "POSITION": 12,
            "TEXCOORD_0": 14
          },
          "indices": 15,
          "material": 0,
          "mode": 4
        }
      ]
    },
    {
      "name": "Object_4",
      "primitives": [
        {
          "attributes": {
            "NORMAL": 17,
            "POSITION": 16,
            "TEXCOORD_0": 18
          },
          "indices": 19,
          "material": 0,
          "mode": 4
        }
      ]
    },
    {
      "name": "Object_5",
      "primitives": [
        {
          "attributes": {
            "NORMAL": 21,
            "POSITION": 20,
            "TEXCOORD_0": 22
          },
          "indices": 23,
          "material": 0,
          "mode": 4
        }
      ]
    },
    {
      "name": "Object_6",
      "primitives": [
        {
          "attributes": {
            "NORMAL": 25,
            "POSITION": 24,
            "TEXCOORD_0": 26
          },
          "indices": 27,
          "material": 0,
          "mode": 4
        }
      ]
    },
    {
      "name": "Object_7",
      "primitives": [
        {
          "attributes": {
            "NORMAL": 29,
            "POSITION": 28,
            "TEXCOORD_0": 30
          },
          "indices": 31,
          "material": 0,
          "mode": 4
        }
      ]
    }
  ],
  "nodes": [
    {
      "children": [
        1
      ],
      "matrix": [
        1.0,
        0.0,
        0.0,
        0.0,
        0.0,
        2.220446049250313e-16,
        -1.0,
        0.0,
        0.0,
        1.0,
        2.220446049250313e-16,
        0.0,
        0.0,
        0.0,
        0.0,
        1.0
      ],
      "name": "Sketchfab_model"
    },
    {
      "children": [
        2,
        3,
        4,
        5,
        6,
        7,
        8,
        9
      ],
      "name": "Suzanne.obj.cleaner.materialmerger.gles"
    },
    {
      "mesh": 0,
      "name": "Object_2"
    },
    {
      "mesh": 1,
      "name": "Object_3"
    },
    {
      "mesh": 2,
      "name": "Object_4"
    },
    {
      "mesh": 3,
      "name": "Object_5"
    },
    {
      "mesh": 4,
      "name": "Object_6"
    },
    {
      "mesh": 5,
      "name": "Object_7"
    },
    {
      "mesh": 6,
      "name": "Object_8"
    },
    {
      "mesh": 7,
      "name": "Object_9"
    }
  ],
  "scene": 0,
  "scenes": [
    {
      "name": "Sketchfab_Scene",
      "nodes": [
        0
      ]
    }
  ]
}
